<mxfile host="Electron" modified="2023-10-23T19:09:11.573Z" agent="Mozilla/5.0 (Macintosh; Intel Mac OS X 10_15_7) AppleWebKit/537.36 (KHTML, like Gecko) draw.io/21.6.1 Chrome/112.0.5615.204 Electron/24.6.1 Safari/537.36" etag="fRJDeWQC_2OQ6BJa4rEB" version="21.6.1" type="device">
  <diagram name="Page-1" id="yB1DWmKXYEXn5iCy_Eis">
    <mxGraphModel dx="1596" dy="874" grid="1" gridSize="10" guides="1" tooltips="1" connect="1" arrows="1" fold="1" page="1" pageScale="1" pageWidth="850" pageHeight="1100" math="0" shadow="0">
      <root>
        <mxCell id="0" />
        <mxCell id="1" parent="0" />
        <mxCell id="dlwZkCslxzIgMPQbT8mn-12" value="" style="rounded=1;whiteSpace=wrap;html=1;fillColor=none;dashed=1;dashPattern=12 12;strokeColor=#f65275;fontStyle=1" parent="1" vertex="1">
          <mxGeometry x="365.5" y="3500" width="472.5" height="340" as="geometry" />
        </mxCell>
        <mxCell id="S01eFrLEEclXeKyKjzkl-9" value="" style="rounded=1;whiteSpace=wrap;html=1;fillColor=none;dashed=1;dashPattern=12 12;strokeColor=#f65275;" parent="1" vertex="1">
          <mxGeometry x="433" y="2230" width="380" height="200" as="geometry" />
        </mxCell>
        <mxCell id="S01eFrLEEclXeKyKjzkl-12" value="" style="rounded=1;whiteSpace=wrap;html=1;fillColor=none;strokeColor=#963cbd;" parent="1" vertex="1">
          <mxGeometry x="475.5" y="2285" width="295" height="110" as="geometry" />
        </mxCell>
        <mxCell id="HU8N1xMr1B3ggyQ2T5j6-19" value="" style="rounded=1;whiteSpace=wrap;html=1;fillColor=none;dashed=1;dashPattern=12 12;strokeColor=#f65275;" parent="1" vertex="1">
          <mxGeometry x="530" y="110" width="210" height="360" as="geometry" />
        </mxCell>
        <mxCell id="HU8N1xMr1B3ggyQ2T5j6-1" value="" style="rounded=1;whiteSpace=wrap;html=1;dashed=1;dashPattern=12 12;fillColor=none;strokeColor=#963cbd;" parent="1" vertex="1">
          <mxGeometry x="340" y="110" width="120" height="360" as="geometry" />
        </mxCell>
        <mxCell id="HU8N1xMr1B3ggyQ2T5j6-2" value="&lt;font style=&quot;font-size: 18px;&quot;&gt;&lt;b&gt;ML Model&lt;/b&gt;&lt;/font&gt;" style="text;html=1;align=center;verticalAlign=middle;resizable=0;points=[];autosize=1;strokeColor=none;fillColor=none;fontColor=#963cbd;" parent="1" vertex="1">
          <mxGeometry x="345" y="110" width="110" height="40" as="geometry" />
        </mxCell>
        <mxCell id="HU8N1xMr1B3ggyQ2T5j6-6" value="&lt;font style=&quot;font-size: 16px;&quot;&gt;Magazine about race car driving&lt;/font&gt;" style="shape=document;whiteSpace=wrap;html=1;boundedLbl=1;fontColor=#000000;strokeColor=#002a3a;fillColor=none;" parent="1" vertex="1">
          <mxGeometry x="95" y="175" width="120" height="80" as="geometry" />
        </mxCell>
        <mxCell id="HU8N1xMr1B3ggyQ2T5j6-7" value="&lt;font style=&quot;font-size: 16px;&quot;&gt;Book about lawn care&lt;/font&gt;" style="shape=document;whiteSpace=wrap;html=1;boundedLbl=1;fontColor=#000000;strokeColor=#002a3a;fillColor=none;" parent="1" vertex="1">
          <mxGeometry x="95" y="265" width="120" height="80" as="geometry" />
        </mxCell>
        <mxCell id="HU8N1xMr1B3ggyQ2T5j6-8" value="&lt;font style=&quot;font-size: 16px;&quot;&gt;Website article about the 10 best golf drivers&lt;/font&gt;" style="shape=document;whiteSpace=wrap;html=1;boundedLbl=1;fontColor=#000000;strokeColor=#002a3a;fillColor=none;" parent="1" vertex="1">
          <mxGeometry x="95" y="355" width="120" height="85" as="geometry" />
        </mxCell>
        <mxCell id="HU8N1xMr1B3ggyQ2T5j6-9" value="" style="endArrow=classic;html=1;rounded=0;exitX=1;exitY=0.5;exitDx=0;exitDy=0;strokeWidth=3;strokeColor=#ffb81c;" parent="1" source="HU8N1xMr1B3ggyQ2T5j6-6" edge="1">
          <mxGeometry width="50" height="50" relative="1" as="geometry">
            <mxPoint x="215" y="210" as="sourcePoint" />
            <mxPoint x="340" y="215" as="targetPoint" />
          </mxGeometry>
        </mxCell>
        <mxCell id="HU8N1xMr1B3ggyQ2T5j6-10" value="" style="endArrow=classic;html=1;rounded=0;exitX=1;exitY=0.5;exitDx=0;exitDy=0;entryX=-0.042;entryY=0.227;entryDx=0;entryDy=0;entryPerimeter=0;fontStyle=1;strokeWidth=3;strokeColor=#ffb81c;" parent="1" source="HU8N1xMr1B3ggyQ2T5j6-7" edge="1">
          <mxGeometry width="50" height="50" relative="1" as="geometry">
            <mxPoint x="220" y="304.5" as="sourcePoint" />
            <mxPoint x="340" y="304.5" as="targetPoint" />
          </mxGeometry>
        </mxCell>
        <mxCell id="HU8N1xMr1B3ggyQ2T5j6-11" value="" style="endArrow=classic;html=1;rounded=0;exitX=1;exitY=0.5;exitDx=0;exitDy=0;entryX=-0.042;entryY=0.227;entryDx=0;entryDy=0;entryPerimeter=0;fontStyle=0;strokeWidth=3;strokeColor=#ffb81c;" parent="1" edge="1">
          <mxGeometry width="50" height="50" relative="1" as="geometry">
            <mxPoint x="215" y="395" as="sourcePoint" />
            <mxPoint x="340" y="394.5" as="targetPoint" />
          </mxGeometry>
        </mxCell>
        <mxCell id="HU8N1xMr1B3ggyQ2T5j6-12" value="&lt;span&gt;&lt;font style=&quot;font-size: 18px;&quot;&gt;&lt;b&gt;[0.934, 0.005]&lt;/b&gt;&lt;/font&gt;&lt;/span&gt;" style="text;html=1;strokeColor=none;fillColor=none;align=center;verticalAlign=middle;whiteSpace=wrap;rounded=0;fontStyle=0;fontColor=#000000;" parent="1" vertex="1">
          <mxGeometry x="543" y="198" width="190" height="30" as="geometry" />
        </mxCell>
        <mxCell id="HU8N1xMr1B3ggyQ2T5j6-13" value="&lt;span&gt;&lt;font style=&quot;font-size: 18px;&quot;&gt;[0.002, 0.005]&lt;/font&gt;&lt;/span&gt;" style="text;html=1;strokeColor=none;fillColor=none;align=center;verticalAlign=middle;whiteSpace=wrap;rounded=0;fontStyle=1;fontColor=#000000;" parent="1" vertex="1">
          <mxGeometry x="568" y="288" width="150" height="30" as="geometry" />
        </mxCell>
        <mxCell id="HU8N1xMr1B3ggyQ2T5j6-14" value="&lt;span&gt;&lt;font style=&quot;font-size: 18px;&quot;&gt;[0.025, 0.987]&lt;/font&gt;&lt;/span&gt;" style="text;html=1;strokeColor=none;fillColor=none;align=center;verticalAlign=middle;whiteSpace=wrap;rounded=0;fontStyle=1;fontColor=#000000;" parent="1" vertex="1">
          <mxGeometry x="548" y="380" width="190" height="30" as="geometry" />
        </mxCell>
        <mxCell id="HU8N1xMr1B3ggyQ2T5j6-15" value="&lt;span&gt;&lt;font style=&quot;font-size: 18px;&quot;&gt;[Car Like, Golf Like]&lt;/font&gt;&lt;/span&gt;" style="text;html=1;strokeColor=none;fillColor=none;align=center;verticalAlign=middle;whiteSpace=wrap;rounded=0;fontStyle=1;fontColor=#000000;" parent="1" vertex="1">
          <mxGeometry x="540" y="150" width="190" height="30" as="geometry" />
        </mxCell>
        <mxCell id="HU8N1xMr1B3ggyQ2T5j6-16" value="" style="endArrow=classic;html=1;rounded=0;exitX=1;exitY=0.5;exitDx=0;exitDy=0;entryX=-0.042;entryY=0.227;entryDx=0;entryDy=0;entryPerimeter=0;strokeWidth=3;strokeColor=#ffb81c;" parent="1" edge="1">
          <mxGeometry width="50" height="50" relative="1" as="geometry">
            <mxPoint x="460" y="214.5" as="sourcePoint" />
            <mxPoint x="580" y="214.5" as="targetPoint" />
          </mxGeometry>
        </mxCell>
        <mxCell id="HU8N1xMr1B3ggyQ2T5j6-17" value="" style="endArrow=classic;html=1;rounded=0;exitX=1;exitY=0.5;exitDx=0;exitDy=0;entryX=-0.042;entryY=0.227;entryDx=0;entryDy=0;entryPerimeter=0;fontStyle=1;strokeWidth=3;strokeColor=#ffb81c;" parent="1" edge="1">
          <mxGeometry width="50" height="50" relative="1" as="geometry">
            <mxPoint x="460" y="305" as="sourcePoint" />
            <mxPoint x="585" y="304.5" as="targetPoint" />
          </mxGeometry>
        </mxCell>
        <mxCell id="HU8N1xMr1B3ggyQ2T5j6-18" value="" style="endArrow=classic;html=1;rounded=0;exitX=1;exitY=0.5;exitDx=0;exitDy=0;entryX=-0.042;entryY=0.227;entryDx=0;entryDy=0;entryPerimeter=0;fontStyle=1;strokeWidth=3;strokeColor=#ffb81c;" parent="1" edge="1">
          <mxGeometry width="50" height="50" relative="1" as="geometry">
            <mxPoint x="460" y="395" as="sourcePoint" />
            <mxPoint x="585" y="394.5" as="targetPoint" />
          </mxGeometry>
        </mxCell>
        <mxCell id="HU8N1xMr1B3ggyQ2T5j6-20" value="&lt;b&gt;&lt;font style=&quot;font-size: 18px;&quot;&gt;Vectors:&lt;br&gt;&lt;/font&gt;&lt;/b&gt;" style="text;html=1;align=center;verticalAlign=middle;resizable=0;points=[];autosize=1;strokeColor=none;fillColor=none;fontColor=#f65275;" parent="1" vertex="1">
          <mxGeometry x="540" y="110" width="90" height="40" as="geometry" />
        </mxCell>
        <mxCell id="HU8N1xMr1B3ggyQ2T5j6-21" value="" style="rounded=1;whiteSpace=wrap;html=1;fillColor=none;dashed=1;dashPattern=12 12;strokeColor=#f65275;" parent="1" vertex="1">
          <mxGeometry x="432.5" y="1310" width="230" height="200" as="geometry" />
        </mxCell>
        <mxCell id="HU8N1xMr1B3ggyQ2T5j6-22" value="&lt;b&gt;&lt;font style=&quot;font-size: 18px;&quot;&gt;OpenSearch&lt;br&gt;&lt;/font&gt;&lt;/b&gt;" style="text;html=1;align=center;verticalAlign=middle;resizable=0;points=[];autosize=1;strokeColor=none;fillColor=none;fontColor=#f65275;" parent="1" vertex="1">
          <mxGeometry x="432.5" y="1310" width="130" height="40" as="geometry" />
        </mxCell>
        <mxCell id="HU8N1xMr1B3ggyQ2T5j6-24" value="&lt;font style=&quot;font-size: 18px;&quot;&gt;&lt;b&gt;&amp;nbsp;Vector Index&lt;/b&gt;&lt;/font&gt;" style="rounded=1;whiteSpace=wrap;html=1;fillColor=none;strokeColor=#f65275;" parent="1" vertex="1">
          <mxGeometry x="502.5" y="1390" width="140" height="80" as="geometry" />
        </mxCell>
        <mxCell id="HU8N1xMr1B3ggyQ2T5j6-28" value="" style="ellipse;shape=cloud;whiteSpace=wrap;html=1;fillColor=none;dashed=1;dashPattern=12 12;strokeColor=#963cbd;" parent="1" vertex="1">
          <mxGeometry x="342.5" y="1170" width="160" height="100" as="geometry" />
        </mxCell>
        <mxCell id="HU8N1xMr1B3ggyQ2T5j6-29" value="&lt;font style=&quot;font-size: 18px;&quot;&gt;&lt;b&gt;ML Model&lt;/b&gt;&lt;/font&gt;" style="text;html=1;align=center;verticalAlign=middle;resizable=0;points=[];autosize=1;strokeColor=none;fillColor=none;fontColor=#963cbd;" parent="1" vertex="1">
          <mxGeometry x="367.5" y="1200" width="110" height="40" as="geometry" />
        </mxCell>
        <mxCell id="HU8N1xMr1B3ggyQ2T5j6-30" value="&lt;b style=&quot;border-color: var(--border-color); font-size: 18px;&quot;&gt;&amp;nbsp;Client Code&lt;/b&gt;" style="rounded=1;whiteSpace=wrap;html=1;strokeColor=#002a3a;fillColor=none;" parent="1" vertex="1">
          <mxGeometry x="137.5" y="1390" width="140" height="80" as="geometry" />
        </mxCell>
        <mxCell id="HU8N1xMr1B3ggyQ2T5j6-33" value="" style="endArrow=classic;html=1;rounded=0;exitX=0.345;exitY=0.019;exitDx=0;exitDy=0;entryX=0.13;entryY=0.77;entryDx=0;entryDy=0;entryPerimeter=0;fontStyle=0;strokeWidth=3;strokeColor=#ffb81c;exitPerimeter=0;" parent="1" source="HU8N1xMr1B3ggyQ2T5j6-30" target="HU8N1xMr1B3ggyQ2T5j6-28" edge="1">
          <mxGeometry width="50" height="50" relative="1" as="geometry">
            <mxPoint x="202.5" y="1350.5" as="sourcePoint" />
            <mxPoint x="327.5" y="1350" as="targetPoint" />
          </mxGeometry>
        </mxCell>
        <mxCell id="HU8N1xMr1B3ggyQ2T5j6-34" value="" style="endArrow=classic;html=1;rounded=0;exitX=0.31;exitY=0.8;exitDx=0;exitDy=0;entryX=0.568;entryY=0.019;entryDx=0;entryDy=0;entryPerimeter=0;fontStyle=0;strokeWidth=3;strokeColor=#ffb81c;exitPerimeter=0;" parent="1" source="HU8N1xMr1B3ggyQ2T5j6-28" target="HU8N1xMr1B3ggyQ2T5j6-30" edge="1">
          <mxGeometry width="50" height="50" relative="1" as="geometry">
            <mxPoint x="332.5" y="1445" as="sourcePoint" />
            <mxPoint x="460.5" y="1300" as="targetPoint" />
          </mxGeometry>
        </mxCell>
        <mxCell id="HU8N1xMr1B3ggyQ2T5j6-35" value="" style="endArrow=classic;html=1;rounded=0;exitX=1;exitY=0.25;exitDx=0;exitDy=0;fontStyle=0;strokeWidth=3;strokeColor=#ffb81c;" parent="1" source="HU8N1xMr1B3ggyQ2T5j6-30" edge="1">
          <mxGeometry width="50" height="50" relative="1" as="geometry">
            <mxPoint x="352.5" y="1260" as="sourcePoint" />
            <mxPoint x="430" y="1410" as="targetPoint" />
          </mxGeometry>
        </mxCell>
        <mxCell id="HU8N1xMr1B3ggyQ2T5j6-36" value="" style="rounded=1;whiteSpace=wrap;html=1;fillColor=none;dashed=1;dashPattern=12 12;strokeColor=#f65275;" parent="1" vertex="1">
          <mxGeometry x="410" y="1790" width="380" height="200" as="geometry" />
        </mxCell>
        <mxCell id="HU8N1xMr1B3ggyQ2T5j6-37" value="&lt;b&gt;&lt;font style=&quot;font-size: 18px;&quot;&gt;OpenSearch&lt;br&gt;&lt;/font&gt;&lt;/b&gt;" style="text;html=1;align=center;verticalAlign=middle;resizable=0;points=[];autosize=1;strokeColor=none;fillColor=none;fontColor=#f65275;" parent="1" vertex="1">
          <mxGeometry x="417.5" y="1790" width="130" height="40" as="geometry" />
        </mxCell>
        <mxCell id="HU8N1xMr1B3ggyQ2T5j6-38" value="&lt;font style=&quot;font-size: 18px;&quot;&gt;&lt;b&gt;&amp;nbsp;Vector Index&lt;/b&gt;&lt;/font&gt;" style="rounded=1;whiteSpace=wrap;html=1;fillColor=none;strokeColor=#f65275;" parent="1" vertex="1">
          <mxGeometry x="630" y="1850" width="140" height="80" as="geometry" />
        </mxCell>
        <mxCell id="HU8N1xMr1B3ggyQ2T5j6-39" value="" style="ellipse;shape=cloud;whiteSpace=wrap;html=1;fillColor=none;dashed=1;dashPattern=12 12;strokeColor=#963cbd;" parent="1" vertex="1">
          <mxGeometry x="590" y="1630" width="170" height="110" as="geometry" />
        </mxCell>
        <mxCell id="HU8N1xMr1B3ggyQ2T5j6-40" value="&lt;font style=&quot;font-size: 18px;&quot;&gt;&lt;b&gt;ML Model&lt;/b&gt;&lt;/font&gt;" style="text;html=1;align=center;verticalAlign=middle;resizable=0;points=[];autosize=1;strokeColor=none;fillColor=none;fontColor=#963cbd;" parent="1" vertex="1">
          <mxGeometry x="625" y="1665" width="110" height="40" as="geometry" />
        </mxCell>
        <mxCell id="HU8N1xMr1B3ggyQ2T5j6-41" value="&lt;b style=&quot;border-color: var(--border-color); font-size: 18px;&quot;&gt;&amp;nbsp;Client Code&lt;/b&gt;" style="rounded=1;whiteSpace=wrap;html=1;strokeColor=#002a3a;fillColor=none;" parent="1" vertex="1">
          <mxGeometry x="150" y="1850" width="140" height="80" as="geometry" />
        </mxCell>
        <mxCell id="HU8N1xMr1B3ggyQ2T5j6-46" value="&lt;font style=&quot;font-size: 18px;&quot;&gt;&lt;b&gt;Neural Search Plugin&lt;/b&gt;&lt;/font&gt;" style="rounded=1;whiteSpace=wrap;html=1;fillColor=none;strokeColor=#f65275;" parent="1" vertex="1">
          <mxGeometry x="432.5" y="1850" width="140" height="80" as="geometry" />
        </mxCell>
        <mxCell id="HU8N1xMr1B3ggyQ2T5j6-47" value="" style="endArrow=classic;html=1;rounded=0;exitX=1;exitY=0.5;exitDx=0;exitDy=0;fontStyle=0;strokeWidth=3;strokeColor=#ffb81c;" parent="1" source="HU8N1xMr1B3ggyQ2T5j6-41" target="HU8N1xMr1B3ggyQ2T5j6-36" edge="1">
          <mxGeometry width="50" height="50" relative="1" as="geometry">
            <mxPoint x="320" y="1880" as="sourcePoint" />
            <mxPoint x="472" y="1880" as="targetPoint" />
          </mxGeometry>
        </mxCell>
        <mxCell id="HU8N1xMr1B3ggyQ2T5j6-48" value="" style="endArrow=classic;html=1;rounded=0;exitX=0.75;exitY=0;exitDx=0;exitDy=0;entryX=0.13;entryY=0.77;entryDx=0;entryDy=0;entryPerimeter=0;fontStyle=0;strokeWidth=3;strokeColor=#f65275;" parent="1" source="HU8N1xMr1B3ggyQ2T5j6-46" target="HU8N1xMr1B3ggyQ2T5j6-39" edge="1">
          <mxGeometry width="50" height="50" relative="1" as="geometry">
            <mxPoint x="417.5" y="1660" as="sourcePoint" />
            <mxPoint x="242.5" y="1802" as="targetPoint" />
          </mxGeometry>
        </mxCell>
        <mxCell id="HU8N1xMr1B3ggyQ2T5j6-49" value="" style="endArrow=classic;html=1;rounded=0;exitX=0.31;exitY=0.8;exitDx=0;exitDy=0;entryX=1;entryY=0;entryDx=0;entryDy=0;fontStyle=0;strokeWidth=3;strokeColor=#f65275;exitPerimeter=0;" parent="1" source="HU8N1xMr1B3ggyQ2T5j6-39" target="HU8N1xMr1B3ggyQ2T5j6-46" edge="1">
          <mxGeometry width="50" height="50" relative="1" as="geometry">
            <mxPoint x="402" y="1260" as="sourcePoint" />
            <mxPoint x="227" y="1402" as="targetPoint" />
          </mxGeometry>
        </mxCell>
        <mxCell id="HU8N1xMr1B3ggyQ2T5j6-50" value="" style="endArrow=classic;html=1;rounded=0;exitX=1;exitY=0.5;exitDx=0;exitDy=0;fontStyle=0;strokeWidth=3;strokeColor=#f65275;" parent="1" source="HU8N1xMr1B3ggyQ2T5j6-46" target="HU8N1xMr1B3ggyQ2T5j6-38" edge="1">
          <mxGeometry width="50" height="50" relative="1" as="geometry">
            <mxPoint x="653" y="1728" as="sourcePoint" />
            <mxPoint x="583" y="1860" as="targetPoint" />
          </mxGeometry>
        </mxCell>
        <mxCell id="S01eFrLEEclXeKyKjzkl-1" value="" style="rounded=1;whiteSpace=wrap;html=1;fillColor=none;dashed=1;dashPattern=12 12;strokeColor=#f65275;" parent="1" vertex="1">
          <mxGeometry x="38" y="2230" width="380" height="200" as="geometry" />
        </mxCell>
        <mxCell id="S01eFrLEEclXeKyKjzkl-2" value="&lt;b&gt;&lt;font style=&quot;font-size: 18px;&quot;&gt;External Connector&lt;br&gt;&lt;/font&gt;&lt;/b&gt;" style="text;html=1;align=center;verticalAlign=middle;resizable=0;points=[];autosize=1;strokeColor=none;fillColor=none;fontColor=#f65275;" parent="1" vertex="1">
          <mxGeometry x="39" y="2230" width="190" height="40" as="geometry" />
        </mxCell>
        <mxCell id="S01eFrLEEclXeKyKjzkl-4" value="&lt;font style=&quot;font-size: 18px;&quot;&gt;&lt;b&gt;Connector&lt;/b&gt;&lt;/font&gt;" style="rounded=1;whiteSpace=wrap;html=1;fillColor=none;strokeColor=#963cbd;" parent="1" vertex="1">
          <mxGeometry x="68" y="2300" width="140" height="80" as="geometry" />
        </mxCell>
        <mxCell id="S01eFrLEEclXeKyKjzkl-5" value="&lt;span style=&quot;font-size: 18px;&quot;&gt;&lt;b&gt;Model 1&lt;/b&gt;&lt;/span&gt;" style="rounded=1;whiteSpace=wrap;html=1;fillColor=none;strokeColor=#963cbd;" parent="1" vertex="1">
          <mxGeometry x="263" y="2260" width="120" height="60" as="geometry" />
        </mxCell>
        <mxCell id="S01eFrLEEclXeKyKjzkl-8" value="" style="endArrow=classic;html=1;rounded=0;exitX=0;exitY=0.5;exitDx=0;exitDy=0;fontStyle=0;strokeWidth=3;strokeColor=#ffb81c;entryX=1;entryY=0.5;entryDx=0;entryDy=0;" parent="1" source="S01eFrLEEclXeKyKjzkl-5" target="S01eFrLEEclXeKyKjzkl-4" edge="1">
          <mxGeometry width="50" height="50" relative="1" as="geometry">
            <mxPoint x="263" y="2329.5" as="sourcePoint" />
            <mxPoint x="383" y="2329.5" as="targetPoint" />
          </mxGeometry>
        </mxCell>
        <mxCell id="S01eFrLEEclXeKyKjzkl-10" value="&lt;b&gt;&lt;font style=&quot;font-size: 18px;&quot;&gt;Local Connector&lt;br&gt;&lt;/font&gt;&lt;/b&gt;" style="text;html=1;align=center;verticalAlign=middle;resizable=0;points=[];autosize=1;strokeColor=none;fillColor=none;fontColor=#f65275;" parent="1" vertex="1">
          <mxGeometry x="433" y="2230" width="170" height="40" as="geometry" />
        </mxCell>
        <mxCell id="S01eFrLEEclXeKyKjzkl-11" value="&lt;font style=&quot;font-size: 18px;&quot;&gt;&lt;b&gt;Connector&lt;/b&gt;&lt;/font&gt;" style="rounded=1;whiteSpace=wrap;html=1;fillColor=none;strokeColor=#963cbd;" parent="1" vertex="1">
          <mxGeometry x="485.5" y="2300" width="140" height="80" as="geometry" />
        </mxCell>
        <mxCell id="S01eFrLEEclXeKyKjzkl-14" value="&lt;b&gt;&lt;font style=&quot;font-size: 18px;&quot;&gt;Model&lt;/font&gt;&lt;/b&gt;" style="text;html=1;align=center;verticalAlign=middle;resizable=0;points=[];autosize=1;strokeColor=none;fillColor=none;" parent="1" vertex="1">
          <mxGeometry x="660.5" y="2320" width="80" height="40" as="geometry" />
        </mxCell>
        <mxCell id="S01eFrLEEclXeKyKjzkl-15" value="&lt;span style=&quot;font-size: 18px;&quot;&gt;&lt;b&gt;Model N&lt;/b&gt;&lt;/span&gt;" style="rounded=1;whiteSpace=wrap;html=1;fillColor=none;strokeColor=#963cbd;" parent="1" vertex="1">
          <mxGeometry x="263" y="2350" width="120" height="60" as="geometry" />
        </mxCell>
        <mxCell id="S01eFrLEEclXeKyKjzkl-16" value="" style="endArrow=classic;html=1;rounded=0;exitX=0;exitY=0.5;exitDx=0;exitDy=0;fontStyle=0;strokeWidth=3;strokeColor=#ffb81c;entryX=1;entryY=0.5;entryDx=0;entryDy=0;" parent="1" source="S01eFrLEEclXeKyKjzkl-15" target="S01eFrLEEclXeKyKjzkl-4" edge="1">
          <mxGeometry width="50" height="50" relative="1" as="geometry">
            <mxPoint x="273" y="2300" as="sourcePoint" />
            <mxPoint x="218" y="2350" as="targetPoint" />
          </mxGeometry>
        </mxCell>
        <mxCell id="S01eFrLEEclXeKyKjzkl-17" value="&lt;b&gt;&lt;font style=&quot;font-size: 38px;&quot;&gt;...&lt;/font&gt;&lt;/b&gt;" style="text;html=1;align=center;verticalAlign=middle;resizable=0;points=[];autosize=1;strokeColor=none;fillColor=none;" parent="1" vertex="1">
          <mxGeometry x="288" y="2294" width="60" height="60" as="geometry" />
        </mxCell>
        <mxCell id="dlwZkCslxzIgMPQbT8mn-13" value="&lt;span&gt;&lt;font style=&quot;font-size: 18px;&quot;&gt;OpenSearch&lt;br&gt;&lt;/font&gt;&lt;/span&gt;" style="text;html=1;align=center;verticalAlign=middle;resizable=0;points=[];autosize=1;strokeColor=none;fillColor=none;fontColor=#f65275;fontStyle=1" parent="1" vertex="1">
          <mxGeometry x="381" y="3510" width="130" height="40" as="geometry" />
        </mxCell>
        <mxCell id="dlwZkCslxzIgMPQbT8mn-15" value="" style="ellipse;shape=cloud;whiteSpace=wrap;html=1;fillColor=none;dashed=1;dashPattern=12 12;strokeColor=#963cbd;fontStyle=1" parent="1" vertex="1">
          <mxGeometry x="655.5" y="3340" width="170" height="110" as="geometry" />
        </mxCell>
        <mxCell id="dlwZkCslxzIgMPQbT8mn-16" value="&lt;font style=&quot;font-size: 18px;&quot;&gt;&lt;span&gt;Cloud &lt;br&gt;Inferencing &lt;br&gt;Service&lt;/span&gt;&lt;/font&gt;" style="text;html=1;align=center;verticalAlign=middle;resizable=0;points=[];autosize=1;strokeColor=none;fillColor=none;fontColor=#963cbd;fontStyle=1" parent="1" vertex="1">
          <mxGeometry x="683" y="3355" width="120" height="80" as="geometry" />
        </mxCell>
        <mxCell id="dlwZkCslxzIgMPQbT8mn-17" value="&lt;span style=&quot;border-color: var(--border-color); font-size: 18px;&quot;&gt;DocBot&lt;br&gt;&lt;/span&gt;&lt;pre&gt;&lt;font style=&quot;font-size: 14px;&quot;&gt;ingestion.py&lt;/font&gt;&lt;/pre&gt;" style="rounded=1;whiteSpace=wrap;html=1;strokeColor=#002a3a;fillColor=none;fontStyle=1" parent="1" vertex="1">
          <mxGeometry x="51" y="3645" width="140" height="80" as="geometry" />
        </mxCell>
        <mxCell id="dlwZkCslxzIgMPQbT8mn-18" value="&lt;blockquote style=&quot;margin: 0 0 0 40px; border: none; padding: 0px;&quot;&gt;&lt;/blockquote&gt;&lt;pre&gt;&lt;span style=&quot;background-color: initial;&quot;&gt;&amp;nbsp; text_embedding: {&lt;br&gt;&lt;/span&gt;&amp;nbsp; &amp;nbsp; model_id: 3d3lnmfw&lt;br&gt;&amp;nbsp; &amp;nbsp; field_map: {&lt;br&gt;&amp;nbsp; &amp;nbsp; &amp;nbsp; content: embedding&lt;br&gt;&amp;nbsp; &amp;nbsp; }&lt;br&gt;&amp;nbsp; }&lt;/pre&gt;" style="rounded=1;whiteSpace=wrap;html=1;fillColor=none;strokeColor=#f65275;align=left;fontStyle=1" parent="1" vertex="1">
          <mxGeometry x="391" y="3690" width="190" height="125" as="geometry" />
        </mxCell>
        <mxCell id="dlwZkCslxzIgMPQbT8mn-19" value="" style="endArrow=classic;html=1;rounded=0;exitX=1;exitY=0.5;exitDx=0;exitDy=0;fontStyle=1;strokeWidth=3;strokeColor=#ffb81c;entryX=1.013;entryY=0.8;entryDx=0;entryDy=0;entryPerimeter=0;" parent="1" source="dlwZkCslxzIgMPQbT8mn-17" target="dlwZkCslxzIgMPQbT8mn-26" edge="1">
          <mxGeometry width="50" height="50" relative="1" as="geometry">
            <mxPoint x="268.5" y="3645" as="sourcePoint" />
            <mxPoint x="420.5" y="3645" as="targetPoint" />
          </mxGeometry>
        </mxCell>
        <mxCell id="dlwZkCslxzIgMPQbT8mn-22" value="" style="endArrow=classic;html=1;rounded=0;exitX=1;exitY=0.5;exitDx=0;exitDy=0;fontStyle=1;strokeWidth=3;strokeColor=#f65275;" parent="1" source="dlwZkCslxzIgMPQbT8mn-18" edge="1">
          <mxGeometry width="50" height="50" relative="1" as="geometry">
            <mxPoint x="601.5" y="3493" as="sourcePoint" />
            <mxPoint x="621" y="3753" as="targetPoint" />
          </mxGeometry>
        </mxCell>
        <mxCell id="dlwZkCslxzIgMPQbT8mn-23" value="&lt;span style=&quot;border-color: var(--border-color);&quot;&gt;&lt;font style=&quot;border-color: var(--border-color); font-size: 24px;&quot;&gt;Ingestion&lt;/font&gt;&lt;/span&gt;" style="text;html=1;align=center;verticalAlign=middle;resizable=0;points=[];autosize=1;strokeColor=none;fillColor=none;fontStyle=1" parent="1" vertex="1">
          <mxGeometry x="38" y="3320" width="130" height="40" as="geometry" />
        </mxCell>
        <mxCell id="dlwZkCslxzIgMPQbT8mn-25" value="&lt;span style=&quot;border-color: var(--border-color);&quot;&gt;&lt;font style=&quot;border-color: var(--border-color); font-size: 18px;&quot;&gt;Index&lt;/font&gt;&lt;/span&gt;" style="text;html=1;align=center;verticalAlign=middle;resizable=0;points=[];autosize=1;strokeColor=none;fillColor=none;fontStyle=1" parent="1" vertex="1">
          <mxGeometry x="611" y="3655" width="70" height="40" as="geometry" />
        </mxCell>
        <mxCell id="dlwZkCslxzIgMPQbT8mn-26" value="&lt;pre&gt;&lt;span&gt;_bulk: &amp;lt;Index Name&amp;gt;&lt;/span&gt;&lt;/pre&gt;" style="text;html=1;align=center;verticalAlign=middle;resizable=0;points=[];autosize=1;strokeColor=none;fillColor=none;fontStyle=1" parent="1" vertex="1">
          <mxGeometry x="198.5" y="3645" width="160" height="50" as="geometry" />
        </mxCell>
        <mxCell id="dlwZkCslxzIgMPQbT8mn-27" value="&lt;span style=&quot;font-size: 18px;&quot;&gt;&lt;span&gt;Ingestion &lt;br&gt;Pipeline&lt;/span&gt;&lt;/span&gt;" style="text;html=1;align=left;verticalAlign=middle;resizable=0;points=[];autosize=1;strokeColor=none;fillColor=none;fontStyle=1" parent="1" vertex="1">
          <mxGeometry x="396" y="3630" width="100" height="60" as="geometry" />
        </mxCell>
        <mxCell id="dlwZkCslxzIgMPQbT8mn-28" value="&lt;blockquote style=&quot;margin: 0 0 0 40px; border: none; padding: 0px;&quot;&gt;&lt;/blockquote&gt;&lt;pre&gt;&lt;span style=&quot;background-color: initial;&quot;&gt;&amp;nbsp; embedding: knn field&lt;br&gt;&lt;/span&gt;&amp;nbsp; content: bm25&lt;br&gt;&lt;/pre&gt;" style="rounded=1;whiteSpace=wrap;html=1;fillColor=none;strokeColor=#f65275;align=left;fontStyle=1" parent="1" vertex="1">
          <mxGeometry x="621" y="3690" width="190" height="125" as="geometry" />
        </mxCell>
        <mxCell id="dlwZkCslxzIgMPQbT8mn-29" value="&lt;blockquote style=&quot;margin: 0 0 0 40px; border: none; padding: 0px;&quot;&gt;&lt;/blockquote&gt;&lt;pre&gt;  &lt;/pre&gt;" style="rounded=1;whiteSpace=wrap;html=1;fillColor=none;strokeColor=#f65275;align=left;fontStyle=1" parent="1" vertex="1">
          <mxGeometry x="568" y="3550" width="130" height="60" as="geometry" />
        </mxCell>
        <mxCell id="dlwZkCslxzIgMPQbT8mn-30" value="&lt;span style=&quot;font-size: 18px;&quot;&gt;&lt;span&gt;ML Model /&amp;nbsp;&lt;br&gt;Connector&lt;br&gt;&lt;/span&gt;&lt;/span&gt;" style="text;html=1;align=left;verticalAlign=middle;resizable=0;points=[];autosize=1;strokeColor=none;fillColor=none;fontStyle=1" parent="1" vertex="1">
          <mxGeometry x="588" y="3550" width="120" height="60" as="geometry" />
        </mxCell>
        <mxCell id="dlwZkCslxzIgMPQbT8mn-31" value="" style="endArrow=classic;html=1;rounded=0;exitX=0.75;exitY=0;exitDx=0;exitDy=0;fontStyle=1;strokeWidth=3;strokeColor=#f65275;entryX=0.119;entryY=0.983;entryDx=0;entryDy=0;entryPerimeter=0;" parent="1" source="dlwZkCslxzIgMPQbT8mn-18" target="dlwZkCslxzIgMPQbT8mn-29" edge="1">
          <mxGeometry width="50" height="50" relative="1" as="geometry">
            <mxPoint x="591" y="3763" as="sourcePoint" />
            <mxPoint x="631" y="3763" as="targetPoint" />
          </mxGeometry>
        </mxCell>
        <mxCell id="dlwZkCslxzIgMPQbT8mn-32" value="" style="endArrow=classic;html=1;rounded=0;exitX=0.35;exitY=1.017;exitDx=0;exitDy=0;fontStyle=1;strokeWidth=3;strokeColor=#f65275;entryX=0.924;entryY=-0.024;entryDx=0;entryDy=0;entryPerimeter=0;exitPerimeter=0;" parent="1" source="dlwZkCslxzIgMPQbT8mn-29" target="dlwZkCslxzIgMPQbT8mn-18" edge="1">
          <mxGeometry width="50" height="50" relative="1" as="geometry">
            <mxPoint x="544" y="3700" as="sourcePoint" />
            <mxPoint x="581" y="3690" as="targetPoint" />
          </mxGeometry>
        </mxCell>
        <mxCell id="dlwZkCslxzIgMPQbT8mn-33" value="" style="endArrow=classic;html=1;rounded=0;exitX=0.25;exitY=0;exitDx=0;exitDy=0;fontStyle=1;strokeWidth=3;strokeColor=#f65275;entryX=0.13;entryY=0.77;entryDx=0;entryDy=0;entryPerimeter=0;" parent="1" source="dlwZkCslxzIgMPQbT8mn-29" target="dlwZkCslxzIgMPQbT8mn-15" edge="1">
          <mxGeometry width="50" height="50" relative="1" as="geometry">
            <mxPoint x="544" y="3700" as="sourcePoint" />
            <mxPoint x="688" y="3450" as="targetPoint" />
          </mxGeometry>
        </mxCell>
        <mxCell id="dlwZkCslxzIgMPQbT8mn-34" value="" style="endArrow=classic;html=1;rounded=0;exitX=0.31;exitY=0.8;exitDx=0;exitDy=0;fontStyle=1;strokeWidth=3;strokeColor=#f65275;entryX=0.5;entryY=0;entryDx=0;entryDy=0;exitPerimeter=0;" parent="1" source="dlwZkCslxzIgMPQbT8mn-15" target="dlwZkCslxzIgMPQbT8mn-29" edge="1">
          <mxGeometry width="50" height="50" relative="1" as="geometry">
            <mxPoint x="624" y="3621" as="sourcePoint" />
            <mxPoint x="574" y="3698" as="targetPoint" />
          </mxGeometry>
        </mxCell>
        <mxCell id="dlwZkCslxzIgMPQbT8mn-35" value="" style="rounded=1;whiteSpace=wrap;html=1;fillColor=none;dashed=1;dashPattern=12 12;strokeColor=#f65275;" parent="1" vertex="1">
          <mxGeometry x="353" y="4620" width="827" height="440" as="geometry" />
        </mxCell>
        <mxCell id="dlwZkCslxzIgMPQbT8mn-36" value="&lt;b&gt;&lt;font style=&quot;font-size: 18px;&quot;&gt;OpenSearch&lt;br&gt;&lt;/font&gt;&lt;/b&gt;" style="text;html=1;align=center;verticalAlign=middle;resizable=0;points=[];autosize=1;strokeColor=none;fillColor=none;fontColor=#f65275;" parent="1" vertex="1">
          <mxGeometry x="368.5" y="4630" width="130" height="40" as="geometry" />
        </mxCell>
        <mxCell id="dlwZkCslxzIgMPQbT8mn-37" value="" style="ellipse;shape=cloud;whiteSpace=wrap;html=1;fillColor=none;dashed=1;dashPattern=12 12;strokeColor=#963cbd;" parent="1" vertex="1">
          <mxGeometry x="643" y="4460" width="170" height="110" as="geometry" />
        </mxCell>
        <mxCell id="dlwZkCslxzIgMPQbT8mn-38" value="&lt;span style=&quot;font-size: 18px;&quot;&gt;&lt;b&gt;Cohere:&amp;nbsp;&lt;br&gt;&lt;/b&gt;&lt;/span&gt;&lt;b style=&quot;border-color: var(--border-color); font-size: 18px;&quot;&gt;embed-english-v2.0&lt;/b&gt;" style="text;html=1;align=center;verticalAlign=middle;resizable=0;points=[];autosize=1;strokeColor=none;fillColor=none;fontColor=#963cbd;" parent="1" vertex="1">
          <mxGeometry x="635.5" y="4485" width="190" height="60" as="geometry" />
        </mxCell>
        <mxCell id="dlwZkCslxzIgMPQbT8mn-39" value="&lt;b style=&quot;border-color: var(--border-color); font-size: 18px;&quot;&gt;DocBot&lt;br&gt;&lt;/b&gt;&lt;pre&gt;&lt;font style=&quot;font-size: 14px;&quot;&gt;query_pipeline.py&lt;/font&gt;&lt;/pre&gt;" style="rounded=1;whiteSpace=wrap;html=1;strokeColor=#002a3a;fillColor=none;" parent="1" vertex="1">
          <mxGeometry x="38.5" y="4765" width="152" height="80" as="geometry" />
        </mxCell>
        <mxCell id="dlwZkCslxzIgMPQbT8mn-40" value="&lt;blockquote style=&quot;margin: 0 0 0 40px; border: none; padding: 0px;&quot;&gt;&lt;/blockquote&gt;&lt;pre&gt;  query: {&lt;br/&gt;    neural: {&lt;br/&gt;      &quot;content&quot;: &quot;Content&quot;&lt;br/&gt;    }&lt;br/&gt;  }&lt;/pre&gt;" style="rounded=1;whiteSpace=wrap;html=1;fillColor=none;strokeColor=#f65275;align=left;" parent="1" vertex="1">
          <mxGeometry x="378.5" y="4810" width="201.5" height="120" as="geometry" />
        </mxCell>
        <mxCell id="dlwZkCslxzIgMPQbT8mn-41" value="" style="endArrow=classic;html=1;rounded=0;exitX=1;exitY=0.5;exitDx=0;exitDy=0;fontStyle=0;strokeWidth=3;strokeColor=#ffb81c;entryX=1.013;entryY=0.8;entryDx=0;entryDy=0;entryPerimeter=0;" parent="1" source="dlwZkCslxzIgMPQbT8mn-39" target="dlwZkCslxzIgMPQbT8mn-45" edge="1">
          <mxGeometry width="50" height="50" relative="1" as="geometry">
            <mxPoint x="256" y="4765" as="sourcePoint" />
            <mxPoint x="408" y="4765" as="targetPoint" />
          </mxGeometry>
        </mxCell>
        <mxCell id="dlwZkCslxzIgMPQbT8mn-42" value="" style="endArrow=classic;html=1;rounded=0;exitX=1;exitY=0.5;exitDx=0;exitDy=0;fontStyle=0;strokeWidth=3;strokeColor=#f65275;entryX=0;entryY=0.5;entryDx=0;entryDy=0;" parent="1" source="dlwZkCslxzIgMPQbT8mn-40" edge="1" target="dlwZkCslxzIgMPQbT8mn-47">
          <mxGeometry width="50" height="50" relative="1" as="geometry">
            <mxPoint x="589" y="4613" as="sourcePoint" />
            <mxPoint x="610" y="4873" as="targetPoint" />
          </mxGeometry>
        </mxCell>
        <mxCell id="dlwZkCslxzIgMPQbT8mn-43" value="&lt;b style=&quot;border-color: var(--border-color);&quot;&gt;&lt;font style=&quot;border-color: var(--border-color); font-size: 24px;&quot;&gt;Search/RAG&lt;/font&gt;&lt;/b&gt;" style="text;html=1;align=center;verticalAlign=middle;resizable=0;points=[];autosize=1;strokeColor=none;fillColor=none;" parent="1" vertex="1">
          <mxGeometry x="10.5" y="4440" width="160" height="40" as="geometry" />
        </mxCell>
        <mxCell id="dlwZkCslxzIgMPQbT8mn-44" value="&lt;b style=&quot;border-color: var(--border-color);&quot;&gt;&lt;font style=&quot;border-color: var(--border-color); font-size: 18px;&quot;&gt;Cohere-Index&lt;/font&gt;&lt;/b&gt;" style="text;html=1;align=center;verticalAlign=middle;resizable=0;points=[];autosize=1;strokeColor=none;fillColor=none;" parent="1" vertex="1">
          <mxGeometry x="633" y="4770" width="140" height="40" as="geometry" />
        </mxCell>
        <mxCell id="dlwZkCslxzIgMPQbT8mn-45" value="&lt;pre&gt;&lt;b&gt;_search: &amp;lt;Question&amp;gt;&lt;/b&gt;&lt;/pre&gt;" style="text;html=1;align=center;verticalAlign=middle;resizable=0;points=[];autosize=1;strokeColor=none;fillColor=none;" parent="1" vertex="1">
          <mxGeometry x="186" y="4765" width="160" height="50" as="geometry" />
        </mxCell>
        <mxCell id="dlwZkCslxzIgMPQbT8mn-46" value="&lt;span style=&quot;font-size: 18px;&quot;&gt;&lt;b&gt;Query Pipeline&lt;br&gt;pre-processor&lt;br&gt;&lt;/b&gt;&lt;/span&gt;" style="text;html=1;align=left;verticalAlign=middle;resizable=0;points=[];autosize=1;strokeColor=none;fillColor=none;" parent="1" vertex="1">
          <mxGeometry x="383" y="4760" width="150" height="60" as="geometry" />
        </mxCell>
        <mxCell id="dlwZkCslxzIgMPQbT8mn-47" value="&lt;blockquote style=&quot;margin: 0 0 0 40px; border: none; padding: 0px;&quot;&gt;&lt;/blockquote&gt;&lt;pre&gt;&lt;span style=&quot;background-color: initial;&quot;&gt;&amp;nbsp; embedding: knn field&lt;br&gt;&lt;/span&gt;&amp;nbsp; text: bm25&lt;br&gt;&lt;/pre&gt;" style="rounded=1;whiteSpace=wrap;html=1;fillColor=none;strokeColor=#f65275;align=left;" parent="1" vertex="1">
          <mxGeometry x="633" y="4807.5" width="190" height="125" as="geometry" />
        </mxCell>
        <mxCell id="dlwZkCslxzIgMPQbT8mn-48" value="&lt;blockquote style=&quot;margin: 0 0 0 40px; border: none; padding: 0px;&quot;&gt;&lt;/blockquote&gt;&lt;pre&gt;  &lt;/pre&gt;" style="rounded=1;whiteSpace=wrap;html=1;fillColor=none;strokeColor=#f65275;align=left;" parent="1" vertex="1">
          <mxGeometry x="555.5" y="4670" width="184.5" height="60" as="geometry" />
        </mxCell>
        <mxCell id="dlwZkCslxzIgMPQbT8mn-49" value="&lt;span style=&quot;font-size: 18px;&quot;&gt;&lt;b&gt;Cohere Connetor&lt;br&gt;&lt;/b&gt;&lt;/span&gt;" style="text;html=1;align=left;verticalAlign=middle;resizable=0;points=[];autosize=1;strokeColor=none;fillColor=none;" parent="1" vertex="1">
          <mxGeometry x="575.5" y="4680" width="170" height="40" as="geometry" />
        </mxCell>
        <mxCell id="dlwZkCslxzIgMPQbT8mn-50" value="" style="endArrow=classic;html=1;rounded=0;exitX=0.75;exitY=0;exitDx=0;exitDy=0;fontStyle=0;strokeWidth=3;strokeColor=#f65275;entryX=0.119;entryY=0.983;entryDx=0;entryDy=0;entryPerimeter=0;" parent="1" source="dlwZkCslxzIgMPQbT8mn-40" target="dlwZkCslxzIgMPQbT8mn-48" edge="1">
          <mxGeometry width="50" height="50" relative="1" as="geometry">
            <mxPoint x="578.5" y="4883" as="sourcePoint" />
            <mxPoint x="618.5" y="4883" as="targetPoint" />
          </mxGeometry>
        </mxCell>
        <mxCell id="dlwZkCslxzIgMPQbT8mn-51" value="" style="endArrow=classic;html=1;rounded=0;exitX=0.35;exitY=1.017;exitDx=0;exitDy=0;fontStyle=0;strokeWidth=3;strokeColor=#f65275;entryX=0.924;entryY=-0.024;entryDx=0;entryDy=0;entryPerimeter=0;exitPerimeter=0;" parent="1" source="dlwZkCslxzIgMPQbT8mn-48" target="dlwZkCslxzIgMPQbT8mn-40" edge="1">
          <mxGeometry width="50" height="50" relative="1" as="geometry">
            <mxPoint x="531.5" y="4820" as="sourcePoint" />
            <mxPoint x="568.5" y="4810" as="targetPoint" />
          </mxGeometry>
        </mxCell>
        <mxCell id="dlwZkCslxzIgMPQbT8mn-52" value="" style="endArrow=classic;html=1;rounded=0;exitX=0.25;exitY=0;exitDx=0;exitDy=0;fontStyle=0;strokeWidth=3;strokeColor=#f65275;entryX=0.13;entryY=0.77;entryDx=0;entryDy=0;entryPerimeter=0;" parent="1" source="dlwZkCslxzIgMPQbT8mn-48" target="dlwZkCslxzIgMPQbT8mn-37" edge="1">
          <mxGeometry width="50" height="50" relative="1" as="geometry">
            <mxPoint x="531.5" y="4820" as="sourcePoint" />
            <mxPoint x="675.5" y="4570" as="targetPoint" />
          </mxGeometry>
        </mxCell>
        <mxCell id="dlwZkCslxzIgMPQbT8mn-53" value="" style="endArrow=classic;html=1;rounded=0;exitX=0.31;exitY=0.8;exitDx=0;exitDy=0;fontStyle=0;strokeWidth=3;strokeColor=#f65275;entryX=0.5;entryY=0;entryDx=0;entryDy=0;exitPerimeter=0;" parent="1" source="dlwZkCslxzIgMPQbT8mn-37" target="dlwZkCslxzIgMPQbT8mn-48" edge="1">
          <mxGeometry width="50" height="50" relative="1" as="geometry">
            <mxPoint x="611.5" y="4741" as="sourcePoint" />
            <mxPoint x="561.5" y="4818" as="targetPoint" />
          </mxGeometry>
        </mxCell>
        <mxCell id="dlwZkCslxzIgMPQbT8mn-54" value="content: &quot;This is my sentence to embed&quot;" style="shape=document;whiteSpace=wrap;html=1;boundedLbl=1;fontStyle=1" parent="1" vertex="1">
          <mxGeometry x="66" y="3520" width="120" height="80" as="geometry" />
        </mxCell>
        <mxCell id="dlwZkCslxzIgMPQbT8mn-55" value="" style="rounded=1;whiteSpace=wrap;html=1;fillColor=none;dashed=1;dashPattern=12 12;strokeColor=#f65275;" parent="1" vertex="1">
          <mxGeometry x="347" y="5710" width="472.5" height="340" as="geometry" />
        </mxCell>
        <mxCell id="dlwZkCslxzIgMPQbT8mn-56" value="&lt;b&gt;&lt;font style=&quot;font-size: 18px;&quot;&gt;OpenSearch&lt;br&gt;&lt;/font&gt;&lt;/b&gt;" style="text;html=1;align=center;verticalAlign=middle;resizable=0;points=[];autosize=1;strokeColor=none;fillColor=none;fontColor=#f65275;" parent="1" vertex="1">
          <mxGeometry x="362.5" y="5720" width="130" height="40" as="geometry" />
        </mxCell>
        <mxCell id="dlwZkCslxzIgMPQbT8mn-57" value="" style="ellipse;shape=cloud;whiteSpace=wrap;html=1;fillColor=none;dashed=1;dashPattern=12 12;strokeColor=#963cbd;" parent="1" vertex="1">
          <mxGeometry x="637" y="5550" width="170" height="110" as="geometry" />
        </mxCell>
        <mxCell id="dlwZkCslxzIgMPQbT8mn-58" value="&lt;font style=&quot;font-size: 18px;&quot;&gt;&lt;b&gt;Cloud &lt;br&gt;Inferencing &lt;br&gt;Service&lt;/b&gt;&lt;/font&gt;" style="text;html=1;align=center;verticalAlign=middle;resizable=0;points=[];autosize=1;strokeColor=none;fillColor=none;fontColor=#963cbd;" parent="1" vertex="1">
          <mxGeometry x="664.5" y="5565" width="120" height="80" as="geometry" />
        </mxCell>
        <mxCell id="dlwZkCslxzIgMPQbT8mn-59" value="&lt;b style=&quot;border-color: var(--border-color); font-size: 18px;&quot;&gt;DocBot&lt;br&gt;&lt;/b&gt;&lt;pre&gt;&lt;font style=&quot;font-size: 14px;&quot;&gt;query_pipeline.py&lt;/font&gt;&lt;/pre&gt;" style="rounded=1;whiteSpace=wrap;html=1;strokeColor=#002a3a;fillColor=none;" parent="1" vertex="1">
          <mxGeometry x="32.5" y="5855" width="152" height="80" as="geometry" />
        </mxCell>
        <mxCell id="dlwZkCslxzIgMPQbT8mn-60" value="&lt;blockquote style=&quot;margin: 0 0 0 40px; border: none; padding: 0px;&quot;&gt;&lt;/blockquote&gt;&lt;pre&gt;  query: {&lt;br/&gt;    neural:{&lt;br/&gt;  }&lt;/pre&gt;" style="rounded=1;whiteSpace=wrap;html=1;fillColor=none;strokeColor=#f65275;align=left;" parent="1" vertex="1">
          <mxGeometry x="372.5" y="5900" width="190" height="125" as="geometry" />
        </mxCell>
        <mxCell id="dlwZkCslxzIgMPQbT8mn-61" value="" style="endArrow=classic;html=1;rounded=0;exitX=1;exitY=0.5;exitDx=0;exitDy=0;fontStyle=0;strokeWidth=3;strokeColor=#ffb81c;entryX=1.013;entryY=0.8;entryDx=0;entryDy=0;entryPerimeter=0;" parent="1" source="dlwZkCslxzIgMPQbT8mn-59" target="dlwZkCslxzIgMPQbT8mn-65" edge="1">
          <mxGeometry width="50" height="50" relative="1" as="geometry">
            <mxPoint x="250" y="5855" as="sourcePoint" />
            <mxPoint x="402" y="5855" as="targetPoint" />
          </mxGeometry>
        </mxCell>
        <mxCell id="dlwZkCslxzIgMPQbT8mn-62" value="" style="endArrow=classic;html=1;rounded=0;exitX=1;exitY=0.5;exitDx=0;exitDy=0;fontStyle=0;strokeWidth=3;strokeColor=#f65275;" parent="1" source="dlwZkCslxzIgMPQbT8mn-60" edge="1">
          <mxGeometry width="50" height="50" relative="1" as="geometry">
            <mxPoint x="583" y="5703" as="sourcePoint" />
            <mxPoint x="602.5" y="5963" as="targetPoint" />
          </mxGeometry>
        </mxCell>
        <mxCell id="dlwZkCslxzIgMPQbT8mn-63" value="&lt;b style=&quot;border-color: var(--border-color);&quot;&gt;&lt;font style=&quot;border-color: var(--border-color); font-size: 24px;&quot;&gt;RAG&amp;nbsp;&lt;/font&gt;&lt;/b&gt;" style="text;html=1;align=center;verticalAlign=middle;resizable=0;points=[];autosize=1;strokeColor=none;fillColor=none;" parent="1" vertex="1">
          <mxGeometry x="44.5" y="5530" width="80" height="40" as="geometry" />
        </mxCell>
        <mxCell id="dlwZkCslxzIgMPQbT8mn-64" value="&lt;b style=&quot;border-color: var(--border-color);&quot;&gt;&lt;font style=&quot;border-color: var(--border-color); font-size: 18px;&quot;&gt;Index&lt;/font&gt;&lt;/b&gt;" style="text;html=1;align=center;verticalAlign=middle;resizable=0;points=[];autosize=1;strokeColor=none;fillColor=none;" parent="1" vertex="1">
          <mxGeometry x="592.5" y="5865" width="70" height="40" as="geometry" />
        </mxCell>
        <mxCell id="dlwZkCslxzIgMPQbT8mn-65" value="&lt;pre&gt;&lt;b&gt;_search: &amp;lt;Index Name&amp;gt;&lt;/b&gt;&lt;/pre&gt;" style="text;html=1;align=center;verticalAlign=middle;resizable=0;points=[];autosize=1;strokeColor=none;fillColor=none;" parent="1" vertex="1">
          <mxGeometry x="175" y="5855" width="170" height="50" as="geometry" />
        </mxCell>
        <mxCell id="dlwZkCslxzIgMPQbT8mn-66" value="&lt;span style=&quot;font-size: 18px;&quot;&gt;&lt;b&gt;Query Processor&lt;/b&gt;&lt;/span&gt;" style="text;html=1;align=left;verticalAlign=middle;resizable=0;points=[];autosize=1;strokeColor=none;fillColor=none;" parent="1" vertex="1">
          <mxGeometry x="377.5" y="5850" width="170" height="40" as="geometry" />
        </mxCell>
        <mxCell id="dlwZkCslxzIgMPQbT8mn-67" value="&lt;blockquote style=&quot;margin: 0 0 0 40px; border: none; padding: 0px;&quot;&gt;&lt;/blockquote&gt;&lt;pre&gt;&lt;span style=&quot;background-color: initial;&quot;&gt;&amp;nbsp; embedding: knn field&lt;br&gt;&lt;/span&gt;&amp;nbsp; text: bm25&lt;br&gt;&lt;/pre&gt;" style="rounded=1;whiteSpace=wrap;html=1;fillColor=none;strokeColor=#f65275;align=left;" parent="1" vertex="1">
          <mxGeometry x="602.5" y="5900" width="190" height="125" as="geometry" />
        </mxCell>
        <mxCell id="dlwZkCslxzIgMPQbT8mn-68" value="&lt;blockquote style=&quot;margin: 0 0 0 40px; border: none; padding: 0px;&quot;&gt;&lt;/blockquote&gt;&lt;pre&gt;  &lt;/pre&gt;" style="rounded=1;whiteSpace=wrap;html=1;fillColor=none;strokeColor=#f65275;align=left;" parent="1" vertex="1">
          <mxGeometry x="549.5" y="5760" width="130" height="60" as="geometry" />
        </mxCell>
        <mxCell id="dlwZkCslxzIgMPQbT8mn-69" value="&lt;span style=&quot;font-size: 18px;&quot;&gt;&lt;b&gt;ML Model /&amp;nbsp;&lt;br&gt;Connector&lt;br&gt;&lt;/b&gt;&lt;/span&gt;" style="text;html=1;align=left;verticalAlign=middle;resizable=0;points=[];autosize=1;strokeColor=none;fillColor=none;" parent="1" vertex="1">
          <mxGeometry x="569.5" y="5760" width="120" height="60" as="geometry" />
        </mxCell>
        <mxCell id="dlwZkCslxzIgMPQbT8mn-70" value="" style="endArrow=classic;html=1;rounded=0;exitX=0.75;exitY=0;exitDx=0;exitDy=0;fontStyle=0;strokeWidth=3;strokeColor=#f65275;entryX=0.119;entryY=0.983;entryDx=0;entryDy=0;entryPerimeter=0;" parent="1" source="dlwZkCslxzIgMPQbT8mn-60" target="dlwZkCslxzIgMPQbT8mn-68" edge="1">
          <mxGeometry width="50" height="50" relative="1" as="geometry">
            <mxPoint x="572.5" y="5973" as="sourcePoint" />
            <mxPoint x="612.5" y="5973" as="targetPoint" />
          </mxGeometry>
        </mxCell>
        <mxCell id="dlwZkCslxzIgMPQbT8mn-71" value="" style="endArrow=classic;html=1;rounded=0;exitX=0.35;exitY=1.017;exitDx=0;exitDy=0;fontStyle=0;strokeWidth=3;strokeColor=#f65275;entryX=0.924;entryY=-0.024;entryDx=0;entryDy=0;entryPerimeter=0;exitPerimeter=0;" parent="1" source="dlwZkCslxzIgMPQbT8mn-68" target="dlwZkCslxzIgMPQbT8mn-60" edge="1">
          <mxGeometry width="50" height="50" relative="1" as="geometry">
            <mxPoint x="525.5" y="5910" as="sourcePoint" />
            <mxPoint x="562.5" y="5900" as="targetPoint" />
          </mxGeometry>
        </mxCell>
        <mxCell id="dlwZkCslxzIgMPQbT8mn-72" value="" style="endArrow=classic;html=1;rounded=0;exitX=0.25;exitY=0;exitDx=0;exitDy=0;fontStyle=0;strokeWidth=3;strokeColor=#f65275;entryX=0.13;entryY=0.77;entryDx=0;entryDy=0;entryPerimeter=0;" parent="1" source="dlwZkCslxzIgMPQbT8mn-68" target="dlwZkCslxzIgMPQbT8mn-57" edge="1">
          <mxGeometry width="50" height="50" relative="1" as="geometry">
            <mxPoint x="525.5" y="5910" as="sourcePoint" />
            <mxPoint x="669.5" y="5660" as="targetPoint" />
          </mxGeometry>
        </mxCell>
        <mxCell id="dlwZkCslxzIgMPQbT8mn-73" value="" style="endArrow=classic;html=1;rounded=0;exitX=0.31;exitY=0.8;exitDx=0;exitDy=0;fontStyle=0;strokeWidth=3;strokeColor=#f65275;entryX=0.5;entryY=0;entryDx=0;entryDy=0;exitPerimeter=0;" parent="1" source="dlwZkCslxzIgMPQbT8mn-57" target="dlwZkCslxzIgMPQbT8mn-68" edge="1">
          <mxGeometry width="50" height="50" relative="1" as="geometry">
            <mxPoint x="605.5" y="5831" as="sourcePoint" />
            <mxPoint x="555.5" y="5908" as="targetPoint" />
          </mxGeometry>
        </mxCell>
        <mxCell id="dlwZkCslxzIgMPQbT8mn-74" value="&lt;div style=&quot;color: rgb(204, 204, 204); background-color: rgb(31, 31, 31); font-family: Menlo, Monaco, &amp;quot;Courier New&amp;quot;, monospace; line-height: 18px;&quot;&gt;&lt;br&gt;&lt;div&gt;{&lt;/div&gt;&lt;div&gt;  &quot;content&quot;: &lt;span style=&quot;color: #ce9178;&quot;&gt;&quot;This is a sentance to embed&quot;&lt;/span&gt;&lt;/div&gt;&lt;div&gt;}&lt;/div&gt;&lt;br&gt;&lt;div&gt;&lt;span style=&quot;color: #f44747;&quot;&gt;-&amp;gt;&lt;/span&gt; Ingestion Pipline &lt;span style=&quot;color: #f44747;&quot;&gt;-&amp;gt;&lt;/span&gt; &lt;span style=&quot;color: #ce9178;&quot;&gt;&quot;content&quot;&lt;/span&gt; &lt;span style=&quot;color: #f44747;&quot;&gt;-&amp;gt;&lt;/span&gt; Model Connector &lt;span style=&quot;color: #f44747;&quot;&gt;-&amp;gt;&lt;/span&gt; Cohere &lt;/div&gt;&lt;div&gt;Ingestion Pipeline &lt;span style=&quot;color: #d4d4d4;&quot;&gt;&amp;lt;-&lt;/span&gt;  Model Connector &lt;span style=&quot;color: #d4d4d4;&quot;&gt;&amp;lt;-&lt;/span&gt; Cohere &lt;span style=&quot;color: #ce9178;&quot;&gt;&quot;embedding&quot;&lt;/span&gt;:  [&lt;span style=&quot;color: #b5cea8;&quot;&gt;0.3453&lt;/span&gt;, &lt;span style=&quot;color: #b5cea8;&quot;&gt;0.3463463&lt;/span&gt;]&lt;/div&gt;&lt;br&gt;&lt;br&gt;&lt;div&gt;{&lt;/div&gt;&lt;div&gt;  &lt;span style=&quot;color: #ce9178;&quot;&gt;&quot;content&quot;&lt;/span&gt;: &lt;span style=&quot;color: #ce9178;&quot;&gt;&quot;This is a sentance to embed&quot;&lt;/span&gt;, &lt;/div&gt;&lt;div&gt;  &lt;span style=&quot;color: #ce9178;&quot;&gt;&quot;embedding&quot;&lt;/span&gt;: [&lt;span style=&quot;color: #b5cea8;&quot;&gt;0.3453&lt;/span&gt;, &lt;span style=&quot;color: #b5cea8;&quot;&gt;.3463463&lt;/span&gt;]&lt;/div&gt;&lt;div&gt;}&lt;/div&gt;&lt;br&gt;&lt;div&gt;&lt;span style=&quot;color: #f44747;&quot;&gt;-&amp;gt;&lt;/span&gt; Index&lt;/div&gt;&lt;/div&gt;" style="text;html=1;align=center;verticalAlign=middle;resizable=0;points=[];autosize=1;strokeColor=none;fillColor=none;" parent="1" vertex="1">
          <mxGeometry x="890" y="6650" width="600" height="280" as="geometry" />
        </mxCell>
        <mxCell id="jKfETpn6oLc8Ka7FSi0c-1" value="" style="rounded=1;whiteSpace=wrap;html=1;fillColor=none;dashed=1;dashPattern=12 12;strokeColor=#f65275;" parent="1" vertex="1">
          <mxGeometry x="1207.5" y="3500" width="472.5" height="340" as="geometry" />
        </mxCell>
        <mxCell id="jKfETpn6oLc8Ka7FSi0c-2" value="&lt;b&gt;&lt;font style=&quot;font-size: 18px;&quot;&gt;OpenSearch&lt;br&gt;&lt;/font&gt;&lt;/b&gt;" style="text;html=1;align=center;verticalAlign=middle;resizable=0;points=[];autosize=1;strokeColor=none;fillColor=none;fontColor=#f65275;" parent="1" vertex="1">
          <mxGeometry x="1223" y="3510" width="130" height="40" as="geometry" />
        </mxCell>
        <mxCell id="jKfETpn6oLc8Ka7FSi0c-3" value="" style="ellipse;shape=cloud;whiteSpace=wrap;html=1;fillColor=none;dashed=1;dashPattern=12 12;strokeColor=#963cbd;" parent="1" vertex="1">
          <mxGeometry x="1470" y="3340" width="220" height="110" as="geometry" />
        </mxCell>
        <mxCell id="jKfETpn6oLc8Ka7FSi0c-4" value="&lt;span style=&quot;font-size: 18px;&quot;&gt;&lt;b&gt;Cohere: &lt;br&gt;embed-english-v2.0&lt;/b&gt;&lt;/span&gt;" style="text;html=1;align=center;verticalAlign=middle;resizable=0;points=[];autosize=1;strokeColor=none;fillColor=none;fontColor=#963cbd;" parent="1" vertex="1">
          <mxGeometry x="1490" y="3365" width="190" height="60" as="geometry" />
        </mxCell>
        <mxCell id="jKfETpn6oLc8Ka7FSi0c-5" value="&lt;b style=&quot;border-color: var(--border-color); font-size: 18px;&quot;&gt;DocBot&lt;br&gt;&lt;/b&gt;&lt;pre&gt;&lt;font style=&quot;font-size: 14px;&quot;&gt;ingestion.py&lt;/font&gt;&lt;/pre&gt;" style="rounded=1;whiteSpace=wrap;html=1;strokeColor=#002a3a;fillColor=none;" parent="1" vertex="1">
          <mxGeometry x="893" y="3645" width="140" height="80" as="geometry" />
        </mxCell>
        <mxCell id="jKfETpn6oLc8Ka7FSi0c-6" value="&lt;blockquote style=&quot;margin: 0 0 0 40px; border: none; padding: 0px;&quot;&gt;&lt;/blockquote&gt;&lt;pre&gt;&lt;span style=&quot;background-color: initial;&quot;&gt;&amp;nbsp; text_embedding: {&lt;br&gt;&lt;/span&gt;&amp;nbsp; &amp;nbsp; model_id: 3d3lnmfw&lt;br&gt;&amp;nbsp; &amp;nbsp; field_map: {&lt;br&gt;&amp;nbsp; &amp;nbsp; &amp;nbsp; content: embedding&lt;br&gt;&amp;nbsp; &amp;nbsp; }&lt;br&gt;&amp;nbsp; }&lt;/pre&gt;" style="rounded=1;whiteSpace=wrap;html=1;fillColor=none;strokeColor=#f65275;align=left;" parent="1" vertex="1">
          <mxGeometry x="1233" y="3690" width="190" height="125" as="geometry" />
        </mxCell>
        <mxCell id="jKfETpn6oLc8Ka7FSi0c-7" value="" style="endArrow=classic;html=1;rounded=0;exitX=1;exitY=0.5;exitDx=0;exitDy=0;fontStyle=0;strokeWidth=3;strokeColor=#ffb81c;entryX=1.013;entryY=0.8;entryDx=0;entryDy=0;entryPerimeter=0;" parent="1" source="jKfETpn6oLc8Ka7FSi0c-5" target="jKfETpn6oLc8Ka7FSi0c-11" edge="1">
          <mxGeometry width="50" height="50" relative="1" as="geometry">
            <mxPoint x="1110.5" y="3645" as="sourcePoint" />
            <mxPoint x="1262.5" y="3645" as="targetPoint" />
          </mxGeometry>
        </mxCell>
        <mxCell id="jKfETpn6oLc8Ka7FSi0c-8" value="" style="endArrow=classic;html=1;rounded=0;exitX=1;exitY=0.5;exitDx=0;exitDy=0;fontStyle=0;strokeWidth=3;strokeColor=#f65275;" parent="1" source="jKfETpn6oLc8Ka7FSi0c-6" edge="1">
          <mxGeometry width="50" height="50" relative="1" as="geometry">
            <mxPoint x="1443.5" y="3493" as="sourcePoint" />
            <mxPoint x="1463" y="3753" as="targetPoint" />
          </mxGeometry>
        </mxCell>
        <mxCell id="jKfETpn6oLc8Ka7FSi0c-9" value="&lt;b style=&quot;border-color: var(--border-color);&quot;&gt;&lt;font style=&quot;border-color: var(--border-color); font-size: 24px;&quot;&gt;Ingestion&lt;/font&gt;&lt;/b&gt;" style="text;html=1;align=center;verticalAlign=middle;resizable=0;points=[];autosize=1;strokeColor=none;fillColor=none;" parent="1" vertex="1">
          <mxGeometry x="880" y="3320" width="130" height="40" as="geometry" />
        </mxCell>
        <mxCell id="jKfETpn6oLc8Ka7FSi0c-10" value="&lt;b style=&quot;border-color: var(--border-color);&quot;&gt;&lt;font style=&quot;border-color: var(--border-color); font-size: 18px;&quot;&gt;Index&lt;/font&gt;&lt;/b&gt;" style="text;html=1;align=center;verticalAlign=middle;resizable=0;points=[];autosize=1;strokeColor=none;fillColor=none;" parent="1" vertex="1">
          <mxGeometry x="1453" y="3655" width="70" height="40" as="geometry" />
        </mxCell>
        <mxCell id="jKfETpn6oLc8Ka7FSi0c-11" value="&lt;pre&gt;&lt;b&gt;_bulk: &amp;lt;Index Name&amp;gt;&lt;/b&gt;&lt;/pre&gt;" style="text;html=1;align=center;verticalAlign=middle;resizable=0;points=[];autosize=1;strokeColor=none;fillColor=none;" parent="1" vertex="1">
          <mxGeometry x="1040.5" y="3645" width="160" height="50" as="geometry" />
        </mxCell>
        <mxCell id="jKfETpn6oLc8Ka7FSi0c-12" value="&lt;span style=&quot;font-size: 18px;&quot;&gt;&lt;b&gt;Ingestion &lt;br&gt;Pipeline&lt;/b&gt;&lt;/span&gt;" style="text;html=1;align=left;verticalAlign=middle;resizable=0;points=[];autosize=1;strokeColor=none;fillColor=none;" parent="1" vertex="1">
          <mxGeometry x="1238" y="3630" width="100" height="60" as="geometry" />
        </mxCell>
        <mxCell id="jKfETpn6oLc8Ka7FSi0c-13" value="&lt;blockquote style=&quot;margin: 0 0 0 40px; border: none; padding: 0px;&quot;&gt;&lt;/blockquote&gt;&lt;pre&gt;&lt;span style=&quot;background-color: initial;&quot;&gt;&amp;nbsp; embedding: knn field&lt;br&gt;&lt;/span&gt;&amp;nbsp; content: bm25&lt;br&gt;&lt;/pre&gt;" style="rounded=1;whiteSpace=wrap;html=1;fillColor=none;strokeColor=#f65275;align=left;" parent="1" vertex="1">
          <mxGeometry x="1463" y="3690" width="190" height="125" as="geometry" />
        </mxCell>
        <mxCell id="jKfETpn6oLc8Ka7FSi0c-14" value="&lt;blockquote style=&quot;margin: 0 0 0 40px; border: none; padding: 0px;&quot;&gt;&lt;/blockquote&gt;&lt;pre&gt;  &lt;/pre&gt;" style="rounded=1;whiteSpace=wrap;html=1;fillColor=none;strokeColor=#f65275;align=left;" parent="1" vertex="1">
          <mxGeometry x="1410" y="3550" width="130" height="60" as="geometry" />
        </mxCell>
        <mxCell id="jKfETpn6oLc8Ka7FSi0c-15" value="&lt;span style=&quot;font-size: 18px;&quot;&gt;&lt;b&gt;ML Model /&amp;nbsp;&lt;br&gt;Connector&lt;br&gt;&lt;/b&gt;&lt;/span&gt;" style="text;html=1;align=left;verticalAlign=middle;resizable=0;points=[];autosize=1;strokeColor=none;fillColor=none;" parent="1" vertex="1">
          <mxGeometry x="1430" y="3550" width="120" height="60" as="geometry" />
        </mxCell>
        <mxCell id="jKfETpn6oLc8Ka7FSi0c-16" value="" style="endArrow=classic;html=1;rounded=0;exitX=0.75;exitY=0;exitDx=0;exitDy=0;fontStyle=0;strokeWidth=3;strokeColor=#f65275;entryX=0.119;entryY=0.983;entryDx=0;entryDy=0;entryPerimeter=0;" parent="1" source="jKfETpn6oLc8Ka7FSi0c-6" target="jKfETpn6oLc8Ka7FSi0c-14" edge="1">
          <mxGeometry width="50" height="50" relative="1" as="geometry">
            <mxPoint x="1433" y="3763" as="sourcePoint" />
            <mxPoint x="1473" y="3763" as="targetPoint" />
          </mxGeometry>
        </mxCell>
        <mxCell id="jKfETpn6oLc8Ka7FSi0c-17" value="" style="endArrow=classic;html=1;rounded=0;exitX=0.35;exitY=1.017;exitDx=0;exitDy=0;fontStyle=0;strokeWidth=3;strokeColor=#f65275;entryX=0.924;entryY=-0.024;entryDx=0;entryDy=0;entryPerimeter=0;exitPerimeter=0;" parent="1" source="jKfETpn6oLc8Ka7FSi0c-14" target="jKfETpn6oLc8Ka7FSi0c-6" edge="1">
          <mxGeometry width="50" height="50" relative="1" as="geometry">
            <mxPoint x="1386" y="3700" as="sourcePoint" />
            <mxPoint x="1423" y="3690" as="targetPoint" />
          </mxGeometry>
        </mxCell>
        <mxCell id="jKfETpn6oLc8Ka7FSi0c-18" value="" style="endArrow=classic;html=1;rounded=0;exitX=0.25;exitY=0;exitDx=0;exitDy=0;fontStyle=0;strokeWidth=3;strokeColor=#f65275;entryX=0.13;entryY=0.77;entryDx=0;entryDy=0;entryPerimeter=0;" parent="1" source="jKfETpn6oLc8Ka7FSi0c-14" target="jKfETpn6oLc8Ka7FSi0c-3" edge="1">
          <mxGeometry width="50" height="50" relative="1" as="geometry">
            <mxPoint x="1386" y="3700" as="sourcePoint" />
            <mxPoint x="1530" y="3450" as="targetPoint" />
          </mxGeometry>
        </mxCell>
        <mxCell id="jKfETpn6oLc8Ka7FSi0c-19" value="" style="endArrow=classic;html=1;rounded=0;exitX=0.31;exitY=0.8;exitDx=0;exitDy=0;fontStyle=0;strokeWidth=3;strokeColor=#f65275;entryX=0.5;entryY=0;entryDx=0;entryDy=0;exitPerimeter=0;" parent="1" source="jKfETpn6oLc8Ka7FSi0c-3" target="jKfETpn6oLc8Ka7FSi0c-14" edge="1">
          <mxGeometry width="50" height="50" relative="1" as="geometry">
            <mxPoint x="1466" y="3621" as="sourcePoint" />
            <mxPoint x="1416" y="3698" as="targetPoint" />
          </mxGeometry>
        </mxCell>
        <mxCell id="jKfETpn6oLc8Ka7FSi0c-20" value="content: &quot;This is my sentence to embed&quot;" style="shape=document;whiteSpace=wrap;html=1;boundedLbl=1;" parent="1" vertex="1">
          <mxGeometry x="908" y="3520" width="120" height="80" as="geometry" />
        </mxCell>
        <mxCell id="l-QCguFe3tv9E_hLSlMp-1" value="&lt;blockquote style=&quot;margin: 0 0 0 40px; border: none; padding: 0px;&quot;&gt;&lt;/blockquote&gt;&lt;pre&gt;  RAG Pipeline&lt;/pre&gt;" style="rounded=1;whiteSpace=wrap;html=1;fillColor=none;strokeColor=#f65275;align=left;" vertex="1" parent="1">
          <mxGeometry x="868" y="4805" width="190" height="125" as="geometry" />
        </mxCell>
        <mxCell id="l-QCguFe3tv9E_hLSlMp-2" value="&lt;span style=&quot;font-size: 18px;&quot;&gt;&lt;b&gt;Query Pipeline&lt;br&gt;post-processor&lt;br&gt;&lt;/b&gt;&lt;/span&gt;" style="text;html=1;align=left;verticalAlign=middle;resizable=0;points=[];autosize=1;strokeColor=none;fillColor=none;" vertex="1" parent="1">
          <mxGeometry x="860" y="4750" width="150" height="60" as="geometry" />
        </mxCell>
        <mxCell id="l-QCguFe3tv9E_hLSlMp-3" value="" style="endArrow=classic;html=1;rounded=0;exitX=1.009;exitY=0.454;exitDx=0;exitDy=0;fontStyle=0;strokeWidth=3;strokeColor=#f65275;entryX=0;entryY=0.5;entryDx=0;entryDy=0;exitPerimeter=0;" edge="1" parent="1" source="dlwZkCslxzIgMPQbT8mn-47" target="l-QCguFe3tv9E_hLSlMp-1">
          <mxGeometry width="50" height="50" relative="1" as="geometry">
            <mxPoint x="838" y="4867.16" as="sourcePoint" />
            <mxPoint x="891" y="4867.16" as="targetPoint" />
          </mxGeometry>
        </mxCell>
        <mxCell id="l-QCguFe3tv9E_hLSlMp-4" value="&lt;span style=&quot;font-size: 18px;&quot;&gt;&lt;span&gt;Cohere:&amp;nbsp;&lt;br&gt;&lt;/span&gt;Command Nightly&lt;/span&gt;" style="text;html=1;align=center;verticalAlign=middle;resizable=0;points=[];autosize=1;strokeColor=none;fillColor=none;fontColor=#963cbd;fontStyle=1" vertex="1" parent="1">
          <mxGeometry x="1110.5" y="4480" width="180" height="60" as="geometry" />
        </mxCell>
        <mxCell id="l-QCguFe3tv9E_hLSlMp-5" value="&lt;blockquote style=&quot;margin: 0 0 0 40px; border: none; padding: 0px;&quot;&gt;&lt;/blockquote&gt;&lt;pre&gt;  &lt;/pre&gt;" style="rounded=1;whiteSpace=wrap;html=1;fillColor=none;strokeColor=#f65275;align=left;fontStyle=1" vertex="1" parent="1">
          <mxGeometry x="1025.5" y="4665" width="184.5" height="60" as="geometry" />
        </mxCell>
        <mxCell id="l-QCguFe3tv9E_hLSlMp-6" value="" style="endArrow=classic;html=1;rounded=0;exitX=0.75;exitY=0;exitDx=0;exitDy=0;fontStyle=1;strokeWidth=3;strokeColor=#f65275;entryX=0.119;entryY=0.983;entryDx=0;entryDy=0;entryPerimeter=0;" edge="1" parent="1" target="l-QCguFe3tv9E_hLSlMp-5">
          <mxGeometry width="50" height="50" relative="1" as="geometry">
            <mxPoint x="1000" y="4805" as="sourcePoint" />
            <mxPoint x="1088.5" y="4878" as="targetPoint" />
          </mxGeometry>
        </mxCell>
        <mxCell id="l-QCguFe3tv9E_hLSlMp-7" value="" style="endArrow=classic;html=1;rounded=0;exitX=0.35;exitY=1.017;exitDx=0;exitDy=0;fontStyle=1;strokeWidth=3;strokeColor=#f65275;entryX=0.924;entryY=-0.024;entryDx=0;entryDy=0;entryPerimeter=0;exitPerimeter=0;" edge="1" parent="1" source="l-QCguFe3tv9E_hLSlMp-5">
          <mxGeometry width="50" height="50" relative="1" as="geometry">
            <mxPoint x="1001.5" y="4815" as="sourcePoint" />
            <mxPoint x="1035" y="4802" as="targetPoint" />
          </mxGeometry>
        </mxCell>
        <mxCell id="l-QCguFe3tv9E_hLSlMp-8" value="" style="endArrow=classic;html=1;rounded=0;exitX=0.25;exitY=0;exitDx=0;exitDy=0;fontStyle=1;strokeWidth=3;strokeColor=#f65275;entryX=0.13;entryY=0.77;entryDx=0;entryDy=0;entryPerimeter=0;" edge="1" parent="1" source="l-QCguFe3tv9E_hLSlMp-5">
          <mxGeometry width="50" height="50" relative="1" as="geometry">
            <mxPoint x="1001.5" y="4815" as="sourcePoint" />
            <mxPoint x="1135" y="4540" as="targetPoint" />
          </mxGeometry>
        </mxCell>
        <mxCell id="l-QCguFe3tv9E_hLSlMp-9" value="" style="endArrow=classic;html=1;rounded=0;exitX=0.31;exitY=0.8;exitDx=0;exitDy=0;fontStyle=1;strokeWidth=3;strokeColor=#f65275;entryX=0.5;entryY=0;entryDx=0;entryDy=0;exitPerimeter=0;" edge="1" parent="1" target="l-QCguFe3tv9E_hLSlMp-5">
          <mxGeometry width="50" height="50" relative="1" as="geometry">
            <mxPoint x="1166" y="4543" as="sourcePoint" />
            <mxPoint x="1031.5" y="4813" as="targetPoint" />
          </mxGeometry>
        </mxCell>
        <mxCell id="l-QCguFe3tv9E_hLSlMp-10" value="&lt;span style=&quot;font-size: 18px;&quot;&gt;&lt;b&gt;Cohere Connetor&lt;br&gt;&lt;/b&gt;&lt;/span&gt;" style="text;html=1;align=left;verticalAlign=middle;resizable=0;points=[];autosize=1;strokeColor=none;fillColor=none;" vertex="1" parent="1">
          <mxGeometry x="1040.5" y="4675" width="170" height="40" as="geometry" />
        </mxCell>
        <mxCell id="l-QCguFe3tv9E_hLSlMp-11" value="" style="ellipse;shape=cloud;whiteSpace=wrap;html=1;fillColor=none;dashed=1;dashPattern=12 12;strokeColor=#963cbd;" vertex="1" parent="1">
          <mxGeometry x="1115.5" y="4450" width="170" height="110" as="geometry" />
        </mxCell>
        <mxCell id="l-QCguFe3tv9E_hLSlMp-12" value="&lt;b style=&quot;border-color: var(--border-color); font-size: 18px;&quot;&gt;DocBot&lt;br&gt;&lt;/b&gt;&lt;pre&gt;&lt;font style=&quot;font-size: 14px;&quot;&gt;integration.py&lt;/font&gt;&lt;/pre&gt;" style="rounded=1;whiteSpace=wrap;html=1;strokeColor=#002a3a;fillColor=none;" vertex="1" parent="1">
          <mxGeometry x="38" y="4620" width="152" height="80" as="geometry" />
        </mxCell>
        <mxCell id="l-QCguFe3tv9E_hLSlMp-13" value="" style="endArrow=classic;html=1;rounded=0;exitX=0.5;exitY=1;exitDx=0;exitDy=0;fontStyle=0;strokeWidth=3;strokeColor=#f65275;" edge="1" parent="1" source="l-QCguFe3tv9E_hLSlMp-12" target="dlwZkCslxzIgMPQbT8mn-39">
          <mxGeometry width="50" height="50" relative="1" as="geometry">
            <mxPoint x="706" y="4558" as="sourcePoint" />
            <mxPoint x="658" y="4680" as="targetPoint" />
          </mxGeometry>
        </mxCell>
        <mxCell id="l-QCguFe3tv9E_hLSlMp-14" value="Question" style="text;html=1;align=center;verticalAlign=middle;resizable=0;points=[];autosize=1;strokeColor=none;fillColor=none;" vertex="1" parent="1">
          <mxGeometry x="114.5" y="4715" width="70" height="30" as="geometry" />
        </mxCell>
        <mxCell id="l-QCguFe3tv9E_hLSlMp-15" value="" style="endArrow=classic;html=1;rounded=0;exitX=1;exitY=0.5;exitDx=0;exitDy=0;fontStyle=0;strokeWidth=3;strokeColor=#f65275;entryX=0.5;entryY=1;entryDx=0;entryDy=0;" edge="1" parent="1" source="l-QCguFe3tv9E_hLSlMp-1" target="dlwZkCslxzIgMPQbT8mn-39">
          <mxGeometry width="50" height="50" relative="1" as="geometry">
            <mxPoint x="1080" y="4868" as="sourcePoint" />
            <mxPoint x="50" y="5100" as="targetPoint" />
            <Array as="points">
              <mxPoint x="1250" y="4868" />
              <mxPoint x="1250" y="5090" />
              <mxPoint x="120" y="5090" />
            </Array>
          </mxGeometry>
        </mxCell>
      </root>
    </mxGraphModel>
  </diagram>
</mxfile>
